<?xml version="1.0" standalone="no"?><!DOCTYPE svg PUBLIC "-//W3C//DTD SVG 1.1//EN" "http://www.w3.org/Graphics/SVG/1.1/DTD/svg11.dtd"><svg t="1528598979713" class="icon" style="" viewBox="0 0 1024 1024" version="1.1" xmlns="http://www.w3.org/2000/svg" p-id="1156" xmlns:xlink="http://www.w3.org/1999/xlink" width="48" height="48"><defs><style type="text/css"></style></defs><path d="M512 554.666667C398.08 554.666667 170.666667 611.413333 170.666667 725.333333L170.666667 853.333333 853.333333 853.333333 853.333333 725.333333C853.333333 611.413333 625.92 554.666667 512 554.666667M512 170.666667C417.706667 170.666667 341.333333 247.04 341.333333 341.333333 341.333333 435.626667 417.706667 512 512 512 606.293333 512 682.666667 435.626667 682.666667 341.333333 682.666667 247.04 606.293333 170.666667 512 170.666667M512 635.733333C638.72 635.733333 772.266667 698.026667 772.266667 725.333333L772.266667 772.266667 251.733333 772.266667 251.733333 725.333333C251.733333 698.026667 384 635.733333 512 635.733333M512 251.733333C561.493333 251.733333 601.6 291.84 601.6 341.333333 601.6 390.826667 561.493333 430.933333 512 430.933333 462.506667 430.933333 422.4 390.826667 422.4 341.333333 422.4 291.84 462.506667 251.733333 512 251.733333Z" fill="#999999" p-id="1157"></path></svg>