<?xml version="1.0" standalone="no"?><!DOCTYPE svg PUBLIC "-//W3C//DTD SVG 1.1//EN" "http://www.w3.org/Graphics/SVG/1.1/DTD/svg11.dtd"><svg t="1528598582323" class="icon" style="" viewBox="0 0 1024 1024" version="1.1" xmlns="http://www.w3.org/2000/svg" p-id="1278" xmlns:xlink="http://www.w3.org/1999/xlink" width="48" height="48"><defs><style type="text/css"></style></defs><path d="M351.330182 828.741921c-35.143405 0-63.614853 28.470425-63.614853 63.612807 0 35.150568 28.470425 63.615876 63.614853 63.615876 35.150568 0 63.620993-28.465309 63.620993-63.615876C414.951175 857.213369 386.514519 828.741921 351.330182 828.741921L351.330182 828.741921 351.330182 828.741921zM796.647457 828.741921c-35.149545 0-63.614853 28.470425-63.614853 63.612807 0 35.150568 28.465309 63.615876 63.614853 63.615876 35.150568 0 63.615876-28.465309 63.615876-63.615876C860.263333 857.213369 831.826678 828.741921 796.647457 828.741921L796.647457 828.741921 796.647457 828.741921zM932.118871 189.273784c-16.253172-18.35709-38.58376-28.312836-62.886259-28.312836L231.894999 160.960948l-2.260483-12.947893c-5.566786-46.279023-46.311769-82.47541-92.750427-82.47541l-40.012296 0c-17.59575 0-31.810496 14.214746-31.810496 31.80845 0 17.588587 14.21577 31.80538 31.810496 31.80538l40.012296 0c13.836123 0 27.961842 12.595876 29.833469 28.086685l30.728862 177.425945 53.946656 379.825678c5.596462 46.279023 45.899376 82.632999 91.736331 82.632999l517.133927 0c17.58961 0 31.810496-14.219863 31.810496-31.807427 0-17.588587-14.219863-31.807427-31.810496-31.807427L343.128383 733.50793c-13.550621 0-26.879184-12.536524-28.66076-27.290553l-5.28026-37.120432 504.664941-31.207769c45.803185 0 86.107123-36.290531 91.514273-80.884169l50.127677-286.624996C959.21602 239.750409 950.694949 210.230072 932.118871 189.273784L932.118871 189.273784zM932.118871 189.273784" fill="#d81e06" p-id="1279"></path></svg>