<?xml version="1.0" standalone="no"?><!DOCTYPE svg PUBLIC "-//W3C//DTD SVG 1.1//EN" "http://www.w3.org/Graphics/SVG/1.1/DTD/svg11.dtd"><svg t="1528598338847" class="icon" style="" viewBox="0 0 1024 1024" version="1.1" xmlns="http://www.w3.org/2000/svg" p-id="1484" xmlns:xlink="http://www.w3.org/1999/xlink" width="48" height="48"><defs><style type="text/css"></style></defs><path d="M416.096 167.776H223.904A64 64 0 0 0 160 231.68v192.192a64 64 0 0 0 63.904 63.904h192.192A64 64 0 0 0 480 423.872V231.68a64 64 0 0 0-63.904-63.904M885.088 282.56l-135.904-135.872a64 64 0 0 0-90.368 0L640 165.504 522.912 282.56a63.456 63.456 0 0 0-18.656 45.056 63.456 63.456 0 0 0 18.656 45.312l18.816 18.816L640 490.08l18.816 18.816a63.904 63.904 0 0 0 90.368-0.032l117.088-117.12 18.816-18.784a63.936 63.936 0 0 0 0-90.368M416.096 551.776H223.904A64 64 0 0 0 160 615.68v192.192a64 64 0 0 0 63.904 63.904h192.192A64 64 0 0 0 480 807.872V615.68a64 64 0 0 0-63.904-63.904M800.096 551.776h-192.192A64 64 0 0 0 544 615.68v192.192a64 64 0 0 0 63.904 63.904h192.192A64 64 0 0 0 864 807.872V615.68a64 64 0 0 0-63.904-63.904" fill="#d81e06" p-id="1485"></path></svg>