<?xml version="1.0" standalone="no"?><!DOCTYPE svg PUBLIC "-//W3C//DTD SVG 1.1//EN" "http://www.w3.org/Graphics/SVG/1.1/DTD/svg11.dtd"><svg t="1544323676309" class="icon" style="" viewBox="0 0 1024 1024" version="1.1" xmlns="http://www.w3.org/2000/svg" p-id="5148" xmlns:xlink="http://www.w3.org/1999/xlink" width="60" height="60"><defs><style type="text/css"></style></defs><path d="M512 0C229.376 0 0 229.376 0 512s229.376 512 512 512 512-229.376 512-512S794.624 0 512 0z m0 973.824C258.048 973.824 50.176 765.952 50.176 512S258.048 50.176 512 50.176 973.824 258.048 973.824 512 765.952 973.824 512 973.824zM306.176 306.176H716.8V256H306.176v50.176z m2.048 277.504l34.816 30.72 145.408-160.768v363.52h47.104V452.608l145.408 160.768 34.816-30.72L512 358.4 308.224 583.68z" p-id="5149"></path></svg>