<?xml version="1.0" standalone="no"?><!DOCTYPE svg PUBLIC "-//W3C//DTD SVG 1.1//EN" "http://www.w3.org/Graphics/SVG/1.1/DTD/svg11.dtd"><svg t="1544323651214" class="icon" style="" viewBox="0 0 1024 1024" version="1.1" xmlns="http://www.w3.org/2000/svg" p-id="5024" xmlns:xlink="http://www.w3.org/1999/xlink" width="60" height="60"><defs><style type="text/css"></style></defs><path d="M512 0C229.517 0 0 229.517 0 512s227.752 512 512 512c282.483 0 512-227.752 512-512C1024 229.517 794.483 0 512 0zM351.338 271.89h305.434c14.125 0 26.483 12.358 26.483 26.482s-12.358 26.483-26.483 26.483H351.338c-14.124 0-26.483-12.358-26.483-26.483 0-15.89 12.359-26.482 26.483-26.482z m331.917 303.669c-12.358 12.358-33.545 12.358-45.903 0L531.42 471.393v270.124c0 14.124-12.359 26.483-26.483 26.483s-26.483-12.359-26.483-26.483v-271.89l-105.93 104.166c-12.36 12.359-33.546 12.359-45.904 0-12.359-12.359-12.359-31.78 0-45.903l155.365-151.835c7.062-7.062 14.124-8.827 22.952-8.827s15.89 3.53 22.952 8.827L683.255 527.89c12.359 15.89 12.359 35.31 0 47.669z" fill="#333333" p-id="5025"></path></svg>