<?xml version="1.0" standalone="no"?><!DOCTYPE svg PUBLIC "-//W3C//DTD SVG 1.1//EN" "http://www.w3.org/Graphics/SVG/1.1/DTD/svg11.dtd"><svg t="1567346884536" class="icon" viewBox="0 0 1024 1024" version="1.1" xmlns="http://www.w3.org/2000/svg" p-id="1891" xmlns:xlink="http://www.w3.org/1999/xlink" width="48" height="48"><defs><style type="text/css"></style></defs><path d="M608 325.6L580.4 300 352 512l228.4 212 27.6-25.6L407.2 512z" p-id="1892"></path><path d="M512 96C282.2 96 96 282.2 96 512s186.2 416 416 416 416-186.2 416-416S741.8 96 512 96z m0 797.4c-210.2 0-381.4-171-381.4-381.4 0-210.2 171-381.4 381.4-381.4 210.2 0 381.4 171 381.4 381.4 0 210.2-171.2 381.4-381.4 381.4z" p-id="1893"></path></svg>