<?xml version="1.0" standalone="no"?><!DOCTYPE svg PUBLIC "-//W3C//DTD SVG 1.1//EN" "http://www.w3.org/Graphics/SVG/1.1/DTD/svg11.dtd"><svg t="1567346928507" class="icon" viewBox="0 0 1024 1024" version="1.1" xmlns="http://www.w3.org/2000/svg" p-id="3406" xmlns:xlink="http://www.w3.org/1999/xlink" width="48" height="48"><defs><style type="text/css"></style></defs><path d="M514.7 101.6c-228.3 0-413.3 185.1-413.3 413.3s185.1 413.3 413.3 413.3c228.2 0.1 413.3-185 413.3-413.2S742.9 101.6 514.7 101.6zM385.5 320.5h246.2c11.6 0 21.1 9.2 21.1 20.6 0 11.4-9.4 20.6-21.1 20.6H385.5c-11.6 0-21.1-9.2-21.1-20.6 0-11.4 9.4-20.6 21.1-20.6z m267.4 245.1c-10.2 9.9-26.7 9.9-36.8 0l-86.4-84.2v219.7c0 11.4-9.4 20.6-21.1 20.6-11.6 0-21.1-9.2-21.1-20.6V481.3l-86.4 84.2c-10.2 9.9-26.7 9.9-36.8 0-10.2-9.9-10.2-26 0-35.9L490.1 407s0-0.1 0.1-0.1c5.1-5 11.8-7.4 18.4-7.4 6.7 0 13.3 2.5 18.4 7.4 0 0 0 0.1 0.1 0.1l125.8 122.7c10.2 9.9 10.2 25.9 0 35.9z" fill="#333333" p-id="3407"></path></svg>