<?xml version="1.0" standalone="no"?><!DOCTYPE svg PUBLIC "-//W3C//DTD SVG 1.1//EN" "http://www.w3.org/Graphics/SVG/1.1/DTD/svg11.dtd"><svg t="1567346747259" class="icon" viewBox="0 0 1024 1024" version="1.1" xmlns="http://www.w3.org/2000/svg" p-id="2030" xmlns:xlink="http://www.w3.org/1999/xlink" width="48" height="48"><defs><style type="text/css"></style></defs><path d="M320 800c-26.496 0-48 21.504-48 48s21.504 48 48 48 48-21.504 48-48-21.504-48-48-48z m0 64c-8.82 0-16-7.18-16-16s7.18-16 16-16 16 7.18 16 16-7.18 16-16 16z m449-64c-26.496 0-48 21.504-48 48s21.504 48 48 48 48-21.504 48-48-21.504-48-48-48z m0 64c-8.82 0-16-7.18-16-16s7.18-16 16-16 16 7.18 16 16-7.18 16-16 16zM896 256L246.354 191.292c-3.256-13.944-8.74-29.32-23.676-41.334C204.048 134.98 173.96 128 128 128v32c37.228 0 62.334 5.014 74.624 14.896 8.916 7.17 11.288 16.846 14.33 31.98l-0.048 0.006 84.104 467.28c4.826 28.84 14.388 50.416 26.58 65.97C342.088 758.624 361.068 768 384 768h480v-32H384c-9.454 0-38.272 0.246-51.5-67.51l-10.856-60.32L864 512l32-256z m-58.82 228.696l-521.2 91.98-63.466-352.6 607.74 61.216-23.074 199.404z" p-id="2031"></path></svg>