<?xml version="1.0" standalone="no"?><!DOCTYPE svg PUBLIC "-//W3C//DTD SVG 1.1//EN" "http://www.w3.org/Graphics/SVG/1.1/DTD/svg11.dtd"><svg t="1567346925968" class="icon" viewBox="0 0 1024 1024" version="1.1" xmlns="http://www.w3.org/2000/svg" p-id="3280" xmlns:xlink="http://www.w3.org/1999/xlink" width="48" height="48"><defs><style type="text/css"></style></defs><path d="M832 128H192c-35.4 0-64 28.6-64 64v640c0 35.4 28.6 64 64 64h640c35.4 0 64-28.6 64-64V192c0-35.4-28.6-64-64-64z m-105 269L459.6 665.6h-0.2c-3.4 3.4-12.6 11-23.2 11-7.6 0-16.2-4.2-23.4-11.4l-112-112c-3.2-3.2-3.2-8.2 0-11.4l35.6-35.6c1.6-1.6 3.6-2.4 5.6-2.4 2 0 4 0.8 5.6 2.4l88.8 88.8 244-245.8c1.6-1.6 3.6-2.4 5.6-2.4 2.2 0 4.2 0.8 5.6 2.4l35 36.2c3.6 3.4 3.6 8.4 0.4 11.6z" p-id="3281"></path></svg>