<?xml version="1.0" standalone="no"?><!DOCTYPE svg PUBLIC "-//W3C//DTD SVG 1.1//EN" "http://www.w3.org/Graphics/SVG/1.1/DTD/svg11.dtd"><svg t="1567346923297" class="icon" viewBox="0 0 1024 1024" version="1.1" xmlns="http://www.w3.org/2000/svg" p-id="3153" xmlns:xlink="http://www.w3.org/1999/xlink" width="48" height="48"><defs><style type="text/css"></style></defs><path d="M832 128H192c-35.4 0-64 28.6-64 64v640c0 35.4 28.6 64 64 64h640c35.4 0 64-28.6 64-64V192c0-35.4-28.6-64-64-64z m8 696c0 8.8-7.2 16-16 16H200c-8.8 0-16-7.2-16-16V200c0-8.8 7.2-16 16-16h624c8.8 0 16 7.2 16 16v624z" p-id="3154"></path><path d="M727.2 385.8L692 349.6c-1.4-1.6-3.6-2.4-5.6-2.4-2.2 0-4.2 0.8-5.6 2.4l-244 245.8-88.8-88.8c-1.6-1.6-3.6-2.4-5.6-2.4-2 0-4 0.8-5.6 2.4l-35.6 35.6c-3.2 3.2-3.2 8.2 0 11.4l112 112c7.2 7.2 16 11.4 23.4 11.4 10.6 0 19.8-7.8 23.2-11h0.2l267.4-268.8c2.8-3.4 2.8-8.4-0.2-11.4z" p-id="3155"></path></svg>