<?xml version="1.0" standalone="no"?><!DOCTYPE svg PUBLIC "-//W3C//DTD SVG 1.1//EN" "http://www.w3.org/Graphics/SVG/1.1/DTD/svg11.dtd"><svg t="1567346989812" class="icon" viewBox="0 0 1024 1024" version="1.1" xmlns="http://www.w3.org/2000/svg" p-id="6452" xmlns:xlink="http://www.w3.org/1999/xlink" width="48" height="48"><defs><style type="text/css"></style></defs><path d="M806.2 217.8c-162.4-162.4-425.8-162.4-588.4 0s-162.4 425.8 0 588.4c162.4 162.4 425.8 162.4 588.4 0s162.4-426 0-588.4z m-24.6 563.8c-148.6 148.6-390.6 148.6-539.2 0-148.6-148.6-148.6-390.6 0-539.2s390.6-148.6 539.2 0c148.8 148.6 148.8 390.6 0 539.2z" fill="#010101" p-id="6453"></path><path d="M680.4 320l-168.8 168.4-168-167.6-23.6 23.6 168 167.6-168 167.6 23.6 23.6 168-167.6 168.8 168.4 23.6-23.6-168.8-168.4 168.8-168.4z" fill="#010101" p-id="6454"></path></svg>