<?xml version="1.0" standalone="no"?><!DOCTYPE svg PUBLIC "-//W3C//DTD SVG 1.1//EN" "http://www.w3.org/Graphics/SVG/1.1/DTD/svg11.dtd"><svg t="1567348573910" class="icon" viewBox="0 0 1024 1024" version="1.1" xmlns="http://www.w3.org/2000/svg" p-id="11541" xmlns:xlink="http://www.w3.org/1999/xlink" width="48" height="48"><defs><style type="text/css"></style></defs><path d="M810.666667 170.666667q18.346667 0 30.506667 12.16t12.16 30.506667q0 18.005333-12.330667 30.336l-268.672 268.330667 268.672 268.330667q12.330667 12.330667 12.330667 30.336 0 18.346667-12.16 30.506667t-30.506667 12.16q-18.005333 0-30.336-12.330667l-268.330667-268.672-268.330667 268.672q-12.330667 12.330667-30.336 12.330667-18.346667 0-30.506667-12.16t-12.16-30.506667q0-18.005333 12.330667-30.336l268.672-268.330667-268.672-268.330667q-12.330667-12.330667-12.330667-30.336 0-18.346667 12.16-30.506667t30.506667-12.16q18.005333 0 30.336 12.330667l268.330667 268.672 268.330667-268.672q12.330667-12.330667 30.336-12.330667z" p-id="11542"></path></svg>