<?xml version="1.0" standalone="no"?><!DOCTYPE svg PUBLIC "-//W3C//DTD SVG 1.1//EN" "http://www.w3.org/Graphics/SVG/1.1/DTD/svg11.dtd"><svg t="1567346920895" class="icon" viewBox="0 0 1024 1024" version="1.1" xmlns="http://www.w3.org/2000/svg" p-id="3027" xmlns:xlink="http://www.w3.org/1999/xlink" width="48" height="48"><defs><style type="text/css"></style></defs><path d="M512 0a512 512 0 1 0 512 512A512 512 0 0 0 512 0z m-53.160851 247.611915a48.36766 48.36766 0 0 1 48.149787-48.149787h9.695319a48.36766 48.36766 0 0 1 48.149788 48.149787v318.202553a48.36766 48.36766 0 0 1-48.149788 48.149787h-9.586383a48.36766 48.36766 0 0 1-48.149787-48.149787V247.611915z m53.051915 577.361702a66.124255 66.124255 0 1 1 66.124255-66.124255A66.124255 66.124255 0 0 1 512 824.537872z" fill="#2c2c2c" p-id="3028"></path></svg>