<?xml version="1.0" standalone="no"?><!DOCTYPE svg PUBLIC "-//W3C//DTD SVG 1.1//EN" "http://www.w3.org/Graphics/SVG/1.1/DTD/svg11.dtd"><svg t="1567346987700" class="icon" viewBox="0 0 1024 1024" version="1.1" xmlns="http://www.w3.org/2000/svg" p-id="6326" xmlns:xlink="http://www.w3.org/1999/xlink" width="48" height="48"><defs><style type="text/css"></style></defs><path d="M447.8 96c51.4 269.2-193.4 263.8-191.8 534.8 1.4 222 210 297.2 256.2 297.2 46.4 0 227.8-48.2 253.8-297.2C787.4 428 621.2 214.8 447.8 96z m64.4 817.2s-81.4-66.6-81.4-148.6S512 616 512 616s80.6 66.6 80.6 148.6-80.4 148.6-80.4 148.6zM734.4 628c-5.6 53.8-19.4 101.2-41 141-17.4 32.4-40.2 59.6-67.4 81.2-13 10.4-26.6 18.8-39.6 25.6 20-29.6 38.2-68.2 38.2-111.2 0-94.4-87.6-167.8-91.4-170.8l-21.2-17.4-21.2 17.4c-3.8 3-92 76.4-92 170.8 0 40.6 16.4 77.2 35.2 106.2-14.8-8-30.4-18.2-46-30.6-29.4-23.6-52.8-51.2-69.4-82.4-20.2-37.6-30.4-80.4-30.8-127-0.8-118.8 48.2-177.8 100-240.2 49.2-59.2 99.6-120.2 99-226.8 65 53.6 122.6 117 165.6 183.6 62.8 96.6 91 193.6 82 280.6z" p-id="6327"></path></svg>