<?xml version="1.0" standalone="no"?><!DOCTYPE svg PUBLIC "-//W3C//DTD SVG 1.1//EN" "http://www.w3.org/Graphics/SVG/1.1/DTD/svg11.dtd"><svg t="1567346982890" class="icon" viewBox="0 0 1024 1024" version="1.1" xmlns="http://www.w3.org/2000/svg" p-id="6074" xmlns:xlink="http://www.w3.org/1999/xlink" width="48" height="48"><defs><style type="text/css"></style></defs><path d="M512 96C282.2 96 96 282.2 96 512s186.2 416 416 416 416-186.2 416-416S741.8 96 512 96z m8.6 636c-18.8 0-34-15-34-33.8 0-18.6 15.2-33.6 34-33.6s34 15 34 33.6c0 18.8-15.2 33.8-34 33.8z m67.6-230.6c-45.6 45-44.4 54.8-46.6 106.6h-38c2.2-57 15-87.4 60.2-129 22-20.6 38.8-45.4 38.8-76.2 0-47.2-38.8-79.8-85.2-79.8-64.8 0-97 32.8-95.8 92.8H384c0.6-84 48.8-124.2 135.2-124.2 66 0 120.8 40.8 120.8 109.2 0 43.8-21.4 72.4-51.8 100.6z" p-id="6075"></path></svg>