<?xml version="1.0" standalone="no"?><!DOCTYPE svg PUBLIC "-//W3C//DTD SVG 1.1//EN" "http://www.w3.org/Graphics/SVG/1.1/DTD/svg11.dtd"><svg t="1567346968576" class="icon" viewBox="0 0 1024 1024" version="1.1" xmlns="http://www.w3.org/2000/svg" p-id="5313" xmlns:xlink="http://www.w3.org/1999/xlink" width="48" height="48"><defs><style type="text/css"></style></defs><path d="M512 96C282.2 96 96 282.2 96 512s186.2 416 416 416 416-186.2 416-416S741.8 96 512 96z m0 797.4c-210.2 0-381.4-171-381.4-381.4 0-210.2 171-381.4 381.4-381.4 210.2 0 381.4 171 381.4 381.4 0 210.2-171.2 381.4-381.4 381.4z" p-id="5314"></path><path d="M519.2 292c-86.4 0-134.6 40.6-135.2 124.4h37.6c-1.2-60.8 31-93 95.8-93 46.4 0 85.2 32.4 85.2 79.6 0 30.6-16.6 55.4-38.8 76.2-45.2 41.6-58 72-60.2 129h38c2.2-51.6 1-61.4 46.6-106.6 30.4-28.4 51.8-56.6 51.8-100.4 0-68.4-54.8-109.2-120.8-109.2z m1.4 372.6c-18.8 0-34 15-34 33.6s15.2 33.8 34 33.8 34-15 34-33.8c0-18.6-15.2-33.6-34-33.6z" p-id="5315"></path></svg>