<?xml version="1.0" standalone="no"?><!DOCTYPE svg PUBLIC "-//W3C//DTD SVG 1.1//EN" "http://www.w3.org/Graphics/SVG/1.1/DTD/svg11.dtd"><svg t="1567346972775" class="icon" viewBox="0 0 1024 1024" version="1.1" xmlns="http://www.w3.org/2000/svg" p-id="5566" xmlns:xlink="http://www.w3.org/1999/xlink" width="48" height="48"><defs><style type="text/css"></style></defs><path d="M503 344m-40 0a40 40 0 1 0 80 0 40 40 0 1 0-80 0Z" p-id="5567"></path><path d="M544 688V432h-96v16h32v240h-32v16h128v-16z" p-id="5568"></path><path d="M512 96C282.2 96 96 282.2 96 512s186.2 416 416 416 416-186.2 416-416S741.8 96 512 96z m0 797.4c-210.2 0-381.4-171-381.4-381.4 0-210.2 171-381.4 381.4-381.4 210.2 0 381.4 171 381.4 381.4 0 210.2-171.2 381.4-381.4 381.4z" p-id="5569"></path></svg>