<?xml version="1.0" standalone="no"?><!DOCTYPE svg PUBLIC "-//W3C//DTD SVG 1.1//EN" "http://www.w3.org/Graphics/SVG/1.1/DTD/svg11.dtd"><svg t="1567346957974" class="icon" viewBox="0 0 1024 1024" version="1.1" xmlns="http://www.w3.org/2000/svg" p-id="4805" xmlns:xlink="http://www.w3.org/1999/xlink" width="48" height="48"><defs><style type="text/css"></style></defs><path d="M726.6 727.8c-25.8-9.2-62.8-12.4-86.4-17.6-13.6-3-33.4-10.6-40-18.4-6.6-8-2.6-81.8-2.6-81.8s12.2-19.2 18.8-36 13.8-62.8 13.8-62.8 13.6 0 18.4-23.8c5.2-26 13.2-36.8 12.2-56.2-1-18-10.4-19-11.4-19 0 0 9.8-27.2 11.2-84.8C662.2 259.2 610 192 512 192s-150 67-148.6 135.2c1.2 57.4 11.2 84.8 11.2 84.8-1 0-10.4 1-11.4 19-1 19.4 7.2 29.8 12.2 55.8 4.8 23.8 18.4 24 18.4 24s7.2 46.2 13.8 63c6.6 17 18.8 36 18.8 36s4 73.8-2.6 81.8-26.4 15.4-40 18.4c-23.8 5.2-60.6 8.6-86.4 17.8C271.6 737 192 768 192 832h640c0-64-79.6-95-105.4-104.2z" p-id="4806"></path></svg>