<?xml version="1.0" standalone="no"?><!DOCTYPE svg PUBLIC "-//W3C//DTD SVG 1.1//EN" "http://www.w3.org/Graphics/SVG/1.1/DTD/svg11.dtd"><svg t="1567346960636" class="icon" viewBox="0 0 1024 1024" version="1.1" xmlns="http://www.w3.org/2000/svg" p-id="4931" xmlns:xlink="http://www.w3.org/1999/xlink" width="48" height="48"><defs><style type="text/css"></style></defs><path d="M512 128c141.2 0 256 105.6 256 235.4 0 79-48 197.4-138.8 342.8-44.8 71.8-90.2 134-117.2 169.6-27-35.6-72-97.4-116.8-169-91-145.6-139.2-264.4-139.2-343.4C256 233.6 370.8 128 512 128m0-32c-159 0-288 119.8-288 267.4 0 208 288 564.6 288 564.6s288-356.6 288-564.6C800 215.8 671 96 512 96z" p-id="4932"></path><path d="M512 256c-70.6 0-128 57.4-128 128s57.4 128 128 128 128-57.4 128-128-57.4-128-128-128z m0 221.8c-51.8 0-93.8-42-93.8-93.8s42-93.8 93.8-93.8 93.8 42 93.8 93.8-42 93.8-93.8 93.8z" p-id="4933"></path></svg>