<?xml version="1.0" standalone="no"?><!DOCTYPE svg PUBLIC "-//W3C//DTD SVG 1.1//EN" "http://www.w3.org/Graphics/SVG/1.1/DTD/svg11.dtd"><svg t="1567346953445" class="icon" viewBox="0 0 1024 1024" version="1.1" xmlns="http://www.w3.org/2000/svg" p-id="4553" xmlns:xlink="http://www.w3.org/1999/xlink" width="48" height="48"><defs><style type="text/css"></style></defs><path d="M689 596c30-47.2 47.6-103.2 47.6-163.4 0-168.2-136.2-304.6-304.2-304.6C264.2 128 128 264.4 128 432.6c0 168.2 136.2 304.6 304.2 304.6 61 0 117.8-18 165.4-48.8l13.8-9.6L828.6 896l67.4-68.6-217-217.2 10-14.2z m-86.2-333.6c45.4 45.4 70.4 105.8 70.4 170s-25 124.6-70.4 170c-45.4 45.4-105.8 70.4-170 70.4s-124.6-25-170-70.4c-45.4-45.4-70.4-105.8-70.4-170s25-124.6 70.4-170c45.4-45.4 105.8-70.4 170-70.4s124.6 25 170 70.4z" p-id="4554"></path></svg>