<?xml version="1.0" standalone="no"?><!DOCTYPE svg PUBLIC "-//W3C//DTD SVG 1.1//EN" "http://www.w3.org/Graphics/SVG/1.1/DTD/svg11.dtd"><svg t="1567346903501" class="icon" viewBox="0 0 1024 1024" version="1.1" xmlns="http://www.w3.org/2000/svg" p-id="2397" xmlns:xlink="http://www.w3.org/1999/xlink" width="48" height="48"><defs><style type="text/css"></style></defs><path d="M826.2 194.8c-86.6-86.6-191.4-129.9-314-129.9S284.8 108.2 198 194.8C120.6 272.5 77.7 364.6 69.5 471.2l-0.7 8.9c-0.4 9.6-0.7 19.2-0.7 28.9 0 122.6 43.3 227.4 129.9 314 86.9 86.7 191.7 130 314.3 130s227.3-43.3 313.9-130.1c86.8-86.6 130.1-191.4 130.1-314S913 281.6 826.2 194.8z m-84.1 178.3L443.2 668c-4.5 4.2-9.8 6.2-15.8 6.2-6.2 0-11.3-2.3-15.5-6.7L282.7 533.6c-2.3-2.2-3.4-5.1-3.6-8.4-0.3-3.4 0.6-6.3 2.4-8.7l12.4-17.1c1.7-2.4 4.2-3.8 7.3-4.2 3.1-0.7 5.8 0 8.2 2L409.8 574c4.6 3.5 10.4 5.5 17.3 5.3 6.9-0.2 12.6-2.2 17.3-6.2l271.3-226c2.2-2.2 5.3-3.2 8.4-2.9 3.1 0 5.8 1.1 8 3.3l10 9.8c2.2 2.2 3.3 4.7 3.3 7.8 0 3.1-1.1 5.8-3.3 8z" p-id="2398"></path></svg>