<?xml version="1.0" standalone="no"?><!DOCTYPE svg PUBLIC "-//W3C//DTD SVG 1.1//EN" "http://www.w3.org/Graphics/SVG/1.1/DTD/svg11.dtd"><svg t="1567346948629" class="icon" viewBox="0 0 1024 1024" version="1.1" xmlns="http://www.w3.org/2000/svg" p-id="4300" xmlns:xlink="http://www.w3.org/1999/xlink" width="48" height="48"><defs><style type="text/css"></style></defs><path d="M800 226.6h-160v-40c0-32.4-26.2-58.6-58.6-58.6h-139C410.2 128 384 154.2 384 186.6v40h-160V256h42.2l47.2 581.4c0 32.4 26.2 58.6 58.6 58.6h282c32.4 0 58.6-26.2 58.6-58.6L759.2 256H800v-29.4z m-386.8-40c0-16.2 13.2-29.4 29.2-29.4h139c16.2 0 29.2 13.2 29.2 29.4v40h-197.4v-40z m270 649.2v1.6c0 16.2-13.2 29.4-29.2 29.4H372c-16.2 0-29.2-13.2-29.2-29.4v-1.6L295.4 256h434.4l-46.6 579.8z" p-id="4301"></path><path d="M498 320h28v482h-28z m142 0h-29.2l-21.4 482h29.2z m-227 0H384l21.4 482h29.2z" p-id="4302"></path></svg>