<?xml version="1.0" standalone="no"?><!DOCTYPE svg PUBLIC "-//W3C//DTD SVG 1.1//EN" "http://www.w3.org/Graphics/SVG/1.1/DTD/svg11.dtd"><svg t="1567346946113" class="icon" viewBox="0 0 1024 1024" version="1.1" xmlns="http://www.w3.org/2000/svg" p-id="4174" xmlns:xlink="http://www.w3.org/1999/xlink" width="48" height="48"><defs><style type="text/css"></style></defs><path d="M640 226V186.6c0-32.4-26.2-58.6-58.6-58.6h-139C410.2 128 384 154.2 384 186.6V226h-160v30h42.2l47.2 581.4c0 32.4 26.2 58.6 58.6 58.6h282c32.4 0 58.6-26.2 58.6-58.6L759.2 256H800v-30h-160zM414 186.6c0-16.2 12.4-28.6 28.6-28.6h139c16.2 0 28.6 12.4 28.6 28.6V226h-196V186.6h-0.2zM405.4 802L384 320h29l21.8 482h-29.4z m120.6 0h-28V320h28v482z m92.6 0h-29.2l21.6-482H640l-21.4 482z" p-id="4175"></path></svg>