<?xml version="1.0" standalone="no"?><!DOCTYPE svg PUBLIC "-//W3C//DTD SVG 1.1//EN" "http://www.w3.org/Graphics/SVG/1.1/DTD/svg11.dtd"><svg t="1567346918174" class="icon" viewBox="0 0 1024 1024" version="1.1" xmlns="http://www.w3.org/2000/svg" p-id="2901" xmlns:xlink="http://www.w3.org/1999/xlink" width="48" height="48"><defs><style type="text/css"></style></defs><path d="M512 992C249.6 992 32 774.4 32 512S249.6 32 512 32s480 217.6 480 480-217.6 480-480 480z m0-883.2C288 108.8 108.8 288 108.8 512S288 915.2 512 915.2 915.2 736 915.2 512 736 108.8 512 108.8z m0 633.6c-19.2 0-38.4-19.2-38.4-38.4s19.2-38.4 38.4-38.4 38.4 19.2 38.4 38.4-19.2 38.4-38.4 38.4z m6.4-115.2h-12.8c-6.4 0-12.8-12.8-12.8-32l-19.2-300.8c0-12.8 12.8-25.6 25.6-25.6h19.2c12.8 0 32 12.8 32 25.6l-19.2 300.8c0 19.2-6.4 32-12.8 32z" p-id="2902"></path></svg>